<svg width="119" height="192" viewBox="0 0 119 192" fill="none" xmlns="http://www.w3.org/2000/svg">
<path d="M66.2954 36.9465C66.1166 32.3479 60.6227 30.054 57.9866 28.2735C55.8642 26.8399 43.5456 33.8141 38.7105 36.9645C32.7522 40.8465 34.1226 49.2675 34.1226 49.2675C32.5139 50.9993 31.7107 51.9375 31.2034 54.8213C30.8457 56.8519 31.7174 58.92 32.1566 60.8531C32.5113 62.4157 32.4544 63.6004 32.4544 63.6004C28.5224 64.7947 25.6623 69.1541 25.6623 69.1541H24.4703C23.6959 68.0194 23.0405 59.9573 24.351 57.7477C34.0089 50.499 24.5298 42.9967 14.6991 38.9359C12.3982 37.9853 10.6904 38.6198 8.91968 38.9955C0.757516 40.7272 7.43069 60.0169 7.43069 60.0169V62.2864C7.43069 62.2864 -0.552652 45.2726 0.0455653 40.818C0.482537 37.5664 3.59821 34.5086 6.71238 33.7931C7.79097 33.5456 6.72323 30.768 7.3106 27.882C8.06744 24.1635 11.4289 19.4408 11.4289 19.4408C13.393 21.7995 16.0197 31.8645 16.0197 31.8645L22.9245 31.89C22.9245 31.89 52.4148 19.0042 56.0816 18.042L63.249 0C68.1103 3.2985 71.0359 9.84112 71.2615 18.2119C71.2615 18.2119 78.1842 19.104 82.0953 23.5282C89.9952 32.4645 91.333 45.282 102.409 54.0701C107.164 57.8426 111.459 60.8663 114.322 67.1115C120.805 81.258 120.647 104.424 111.252 119.241C111.252 119.241 87.7763 153.994 89.2207 163.044C90.6656 172.094 100.417 172.637 113.96 172.637L103.814 186.746C84.2558 190.637 60.9223 199.879 63.2172 177.705C63.2172 177.705 25.9818 198.394 11.9328 188.928C6.91777 185.549 -2.87481 155.628 4.52902 133.619C6.33788 128.243 10.179 121.074 15.3635 115.078C27.1015 101.503 35.9498 95.3483 42.4434 89.3516C47.4293 84.7466 51.7059 83.2294 53.4661 80.325C57.14 74.2624 54.1799 69.4984 54.1799 69.4984C61.2343 66.6371 65.9834 62.1765 67.7032 59.0524C69.6644 55.4884 65.594 55.7569 65.594 55.7569C65.594 55.7569 69.493 51.0893 70.4949 47.2384C70.6614 46.5968 69.3116 45.4485 69.4399 44.8132C69.8933 42.5708 70.2465 39.4657 69.6883 38.5331C67.8963 35.5399 66.2951 36.9465 66.2951 36.9465H66.2954ZM37.0774 162.084C59.6152 159.704 64.6018 150.012 64.5416 149.589C64.5416 149.589 54.5327 149.308 53.1881 149.06C51.3142 148.714 50.7242 147.811 50.7242 147.811C76.1367 148.477 86.7968 133.005 94.277 120.146C104.92 101.851 98.041 81.0158 92.5186 67.4662C75.0839 80.8909 41.1561 104.35 26.5598 125.395C15.4447 141.42 25.6776 178.644 29.1693 182.191C32.6606 185.737 60.1116 162.056 60.1116 162.056C49.9554 164.812 41.1886 166.028 37.0774 162.084ZM24.2339 48.9525C24.4501 52.0399 22.3951 56.6625 16.533 57.1519C10.6713 57.6416 7.0865 52.0541 7.04909 50.415C6.94134 45.6484 10.5621 43.644 14.9393 43.644C19.3165 43.644 24.0177 45.8651 24.2339 48.9525ZM20.6274 51.3075C20.9244 47.9543 19.3636 46.6133 15.4241 46.4644C11.4846 46.3151 10.2209 49.221 11.4098 52.0519C12.5995 54.8831 20.3296 54.66 20.627 51.3071L20.6274 51.3075ZM38.5975 45.6056C39.1358 42.8175 40.7539 38.2346 49.8125 37.8713C61.0275 37.4216 62.6014 45.9982 60.9377 50.0122C58.5152 55.8577 50.5304 59.9048 44.6982 55.6777C38.8661 51.4507 38.0591 48.3934 38.5975 45.6052V45.6056ZM43.7117 48.5734C43.7117 48.5734 45.775 52.9796 50.5304 52.5304C55.2855 52.0804 56.6312 48.4834 56.8107 46.5049C56.8912 45.615 56.2006 43.2476 54.3883 42.1882C52.1705 40.8919 48.5756 41.0366 46.4031 41.8283C42.4554 43.2671 43.7113 48.5734 43.7113 48.5734H43.7117Z" fill="#E5E5E5"/>
</svg>
